<svg id="visual" viewBox="0 0 1600 600" width="1600" height="600" xmlns="http://www.w3.org/2000/svg" xmlns:xlink="http://www.w3.org/1999/xlink" version="1.1"><path d="M0 332L38.2 346.3C76.3 360.7 152.7 389.3 228.8 400C305 410.7 381 403.3 457.2 416.7C533.3 430 609.7 464 685.8 467.2C762 470.3 838 442.7 914.2 441C990.3 439.3 1066.7 463.7 1142.8 448.8C1219 434 1295 380 1371.2 368.2C1447.3 356.3 1523.7 386.7 1561.8 401.8L1600 417L1600 0L1561.8 0C1523.7 0 1447.3 0 1371.2 0C1295 0 1219 0 1142.8 0C1066.7 0 990.3 0 914.2 0C838 0 762 0 685.8 0C609.7 0 533.3 0 457.2 0C381 0 305 0 228.8 0C152.7 0 76.3 0 38.2 0L0 0Z" fill="#67c5b1"></path><path d="M0 293L38.2 293.8C76.3 294.7 152.7 296.3 228.8 296.8C305 297.3 381 296.7 457.2 315.2C533.3 333.7 609.7 371.3 685.8 389C762 406.7 838 404.3 914.2 384.5C990.3 364.7 1066.7 327.3 1142.8 312.5C1219 297.7 1295 305.3 1371.2 325C1447.3 344.7 1523.7 376.3 1561.8 392.2L1600 408L1600 0L1561.8 0C1523.7 0 1447.3 0 1371.2 0C1295 0 1219 0 1142.8 0C1066.7 0 990.3 0 914.2 0C838 0 762 0 685.8 0C609.7 0 533.3 0 457.2 0C381 0 305 0 228.8 0C152.7 0 76.3 0 38.2 0L0 0Z" fill="#54b8a2"></path><path d="M0 317L38.2 307.5C76.3 298 152.7 279 228.8 256.7C305 234.3 381 208.7 457.2 209.2C533.3 209.7 609.7 236.3 685.8 236.5C762 236.7 838 210.3 914.2 218.2C990.3 226 1066.7 268 1142.8 268.2C1219 268.3 1295 226.7 1371.2 227.5C1447.3 228.3 1523.7 271.7 1561.8 293.3L1600 315L1600 0L1561.8 0C1523.7 0 1447.3 0 1371.2 0C1295 0 1219 0 1142.8 0C1066.7 0 990.3 0 914.2 0C838 0 762 0 685.8 0C609.7 0 533.3 0 457.2 0C381 0 305 0 228.8 0C152.7 0 76.3 0 38.2 0L0 0Z" fill="#3fac92"></path><path d="M0 115L38.2 132.5C76.3 150 152.7 185 228.8 193.3C305 201.7 381 183.3 457.2 172.2C533.3 161 609.7 157 685.8 156.8C762 156.7 838 160.3 914.2 164.3C990.3 168.3 1066.7 172.7 1142.8 174.2C1219 175.7 1295 174.3 1371.2 168.5C1447.3 162.7 1523.7 152.3 1561.8 147.2L1600 142L1600 0L1561.8 0C1523.7 0 1447.3 0 1371.2 0C1295 0 1219 0 1142.8 0C1066.7 0 990.3 0 914.2 0C838 0 762 0 685.8 0C609.7 0 533.3 0 457.2 0C381 0 305 0 228.8 0C152.7 0 76.3 0 38.2 0L0 0Z" fill="#28a083"></path><path d="M0 135L38.2 121.5C76.3 108 152.7 81 228.8 70C305 59 381 64 457.2 75.2C533.3 86.3 609.7 103.7 685.8 108.3C762 113 838 105 914.2 97.8C990.3 90.7 1066.7 84.3 1142.8 87C1219 89.7 1295 101.3 1371.2 98.7C1447.3 96 1523.7 79 1561.8 70.5L1600 62L1600 0L1561.8 0C1523.7 0 1447.3 0 1371.2 0C1295 0 1219 0 1142.8 0C1066.7 0 990.3 0 914.2 0C838 0 762 0 685.8 0C609.7 0 533.3 0 457.2 0C381 0 305 0 228.8 0C152.7 0 76.3 0 38.2 0L0 0Z" fill="#009473"></path></svg>
