<svg id="visual" viewBox="0 0 450 900" width="450" height="900" xmlns="http://www.w3.org/2000/svg" xmlns:xlink="http://www.w3.org/1999/xlink" version="1.1"><path d="M292 0L280.7 25C269.3 50 246.7 100 241 150C235.3 200 246.7 250 247.2 300C247.7 350 237.3 400 238.3 450C239.3 500 251.7 550 264.2 600C276.7 650 289.3 700 293.5 750C297.7 800 293.3 850 291.2 875L289 900L0 900L0 875C0 850 0 800 0 750C0 700 0 650 0 600C0 550 0 500 0 450C0 400 0 350 0 300C0 250 0 200 0 150C0 100 0 50 0 25L0 0Z" fill="#67c5b1"></path><path d="M203 0L202.2 25C201.3 50 199.7 100 198.3 150C197 200 196 250 205.2 300C214.3 350 233.7 400 237.7 450C241.7 500 230.3 550 217.3 600C204.3 650 189.7 700 186.3 750C183 800 191 850 195 875L199 900L0 900L0 875C0 850 0 800 0 750C0 700 0 650 0 600C0 550 0 500 0 450C0 400 0 350 0 300C0 250 0 200 0 150C0 100 0 50 0 25L0 0Z" fill="#54b8a2"></path><path d="M160 0L159.7 25C159.3 50 158.7 100 167 150C175.3 200 192.7 250 194.8 300C197 350 184 400 172.3 450C160.7 500 150.3 550 150.5 600C150.7 650 161.3 700 165.3 750C169.3 800 166.7 850 165.3 875L164 900L0 900L0 875C0 850 0 800 0 750C0 700 0 650 0 600C0 550 0 500 0 450C0 400 0 350 0 300C0 250 0 200 0 150C0 100 0 50 0 25L0 0Z" fill="#3fac92"></path><path d="M145 0L143.7 25C142.3 50 139.7 100 130.8 150C122 200 107 250 105.8 300C104.7 350 117.3 400 123.8 450C130.3 500 130.7 550 130.3 600C130 650 129 700 124.3 750C119.7 800 111.3 850 107.2 875L103 900L0 900L0 875C0 850 0 800 0 750C0 700 0 650 0 600C0 550 0 500 0 450C0 400 0 350 0 300C0 250 0 200 0 150C0 100 0 50 0 25L0 0Z" fill="#28a083"></path><path d="M59 0L61.8 25C64.7 50 70.3 100 73.2 150C76 200 76 250 79 300C82 350 88 400 87.2 450C86.3 500 78.7 550 73.5 600C68.3 650 65.7 700 68.2 750C70.7 800 78.3 850 82.2 875L86 900L0 900L0 875C0 850 0 800 0 750C0 700 0 650 0 600C0 550 0 500 0 450C0 400 0 350 0 300C0 250 0 200 0 150C0 100 0 50 0 25L0 0Z" fill="#009473"></path></svg>
